<svg width="1599" height="1544" viewBox="0 0 1599 1544" fill="none" xmlns="http://www.w3.org/2000/svg">
<g opacity="0.5" filter="url(#filter0_f_18_2517)">
<path d="M983.83 759.637C1063.02 691.502 1008.57 588.802 971.45 545.969C1425.09 665.435 1176.76 754.371 1190.91 889.311C1205.06 1024.25 936.751 1001.55 892.88 945.586C849.009 889.619 884.842 844.806 983.83 759.637Z" fill="#F5E8C7" fill-opacity="0.5"/>
</g>
<g opacity="0.5" filter="url(#filter1_f_18_2517)">
<path d="M874.25 622.493C914.407 587.941 886.797 535.862 867.972 514.141C1098.02 574.723 972.088 619.823 979.264 688.252C986.439 756.681 850.376 745.171 828.129 716.789C805.881 688.408 824.053 665.683 874.25 622.493Z" fill="#7741EA"/>
</g>
<g opacity="0.1" filter="url(#filter2_f_18_2517)">
<path fill-rule="evenodd" clip-rule="evenodd" d="M777.138 253.361C948.69 231.623 1120.04 317.336 1228.4 452.104C1337.26 587.5 1378.27 771.473 1327.22 937.535C1279.91 1091.46 1133.64 1181.66 985.048 1243.72C848.391 1300.79 699.194 1314.81 562.956 1256.74C418.021 1194.96 277.865 1087.2 252.891 931.638C229.062 783.207 357.689 669.731 449.622 550.787C544.504 428.027 623.217 272.866 777.138 253.361Z" fill="#7741EA"/>
</g>
<defs>
<filter id="filter0_f_18_2517" x="624.408" y="295.969" width="871.758" height="943.634" filterUnits="userSpaceOnUse" color-interpolation-filters="sRGB">
<feFlood flood-opacity="0" result="BackgroundImageFix"/>
<feBlend mode="normal" in="SourceGraphic" in2="BackgroundImageFix" result="shape"/>
<feGaussianBlur stdDeviation="125" result="effect1_foregroundBlur_18_2517"/>
</filter>
<filter id="filter1_f_18_2517" x="568.762" y="264.141" width="688.52" height="724.97" filterUnits="userSpaceOnUse" color-interpolation-filters="sRGB">
<feFlood flood-opacity="0" result="BackgroundImageFix"/>
<feBlend mode="normal" in="SourceGraphic" in2="BackgroundImageFix" result="shape"/>
<feGaussianBlur stdDeviation="125" result="effect1_foregroundBlur_18_2517"/>
</filter>
<filter id="filter2_f_18_2517" x="0" y="0" width="1599" height="1544" filterUnits="userSpaceOnUse" color-interpolation-filters="sRGB">
<feFlood flood-opacity="0" result="BackgroundImageFix"/>
<feBlend mode="normal" in="SourceGraphic" in2="BackgroundImageFix" result="shape"/>
<feGaussianBlur stdDeviation="125" result="effect1_foregroundBlur_18_2517"/>
</filter>
</defs>
</svg>
