<svg width="2365" height="838" viewBox="0 0 2365 838" fill="none" xmlns="http://www.w3.org/2000/svg">
<circle cx="115.71" cy="115.71" r="115.21" transform="matrix(0.66946 -0.742848 -0.742848 -0.66946 1890.5 326.836)" stroke="#435585" stroke-opacity="0.6"/>
<circle cx="75.5476" cy="75.5476" r="75.0476" transform="matrix(0.66946 -0.742848 -0.742848 -0.66946 1887.55 270.115)" stroke="#435585" stroke-opacity="0.6"/>
<line y1="-0.5" x2="431.957" y2="-0.5" transform="matrix(-0.677024 -0.735961 -0.735961 0.677024 2260.53 558.648)" stroke="#435585" stroke-opacity="0.6"/>
<circle cx="1303.23" cy="486.786" r="115.21" transform="rotate(65.5448 1303.23 486.786)" stroke="#435585" stroke-opacity="0.6"/>
<circle cx="1303.23" cy="486.785" r="75.0476" transform="rotate(65.5448 1303.23 486.785)" stroke="#435585" stroke-opacity="0.6"/>
<line x1="1783.65" y1="224.695" x2="1408.88" y2="439.485" stroke="#435585" stroke-opacity="0.6"/>
<path d="M619.21 352.515C562.572 323.5 539.762 254.913 568.237 199.33C596.711 143.747 665.702 122.187 722.34 151.202C778.978 180.217 801.788 248.804 773.313 304.387C744.839 359.97 675.848 381.53 619.21 352.515Z" stroke="#435585" stroke-opacity="0.6"/>
<path d="M637.187 317.422C600.29 298.521 585.435 253.843 603.981 217.64C622.527 181.438 667.465 167.391 704.362 186.293C741.259 205.194 756.113 249.872 737.567 286.075C719.021 322.277 674.083 336.324 637.187 317.422Z" stroke="#435585" stroke-opacity="0.6"/>
<line y1="-0.5" x2="431.889" y2="-0.5" transform="matrix(-0.928098 -0.372335 0.369147 -0.929371 1174.51 465.582)" stroke="#435585" stroke-opacity="0.6"/>
<path d="M225.387 770.28C173.437 807.035 102.086 795.479 66.0162 744.496C29.946 693.513 42.7973 622.384 94.7474 585.63C146.698 548.875 218.048 560.431 254.118 611.414C290.189 662.396 277.337 733.525 225.387 770.28Z" stroke="#435585" stroke-opacity="0.6"/>
<path d="M202.613 738.092C168.77 762.036 122.294 754.505 98.8008 721.299C75.3075 688.093 83.6754 641.76 117.518 617.817C151.361 593.873 197.837 601.404 221.33 634.61C244.824 667.816 236.456 714.149 202.613 738.092Z" stroke="#435585" stroke-opacity="0.6"/>
<line y1="-0.5" x2="431.889" y2="-0.5" transform="matrix(-0.759896 0.650045 -0.652649 -0.75766 582.82 330.525)" stroke="#435585" stroke-opacity="0.6"/>
</svg>
