<svg width="78" height="27" viewBox="0 0 78 27" fill="none" xmlns="http://www.w3.org/2000/svg">
<path d="M2.01236 21.2039V10.639H0.167697V10.0353H2.01236V5.70872L8.25067 4.16592V10.0353H12.6108V10.639H8.25067V21.9417C8.25067 22.9926 8.35129 23.764 8.55252 24.256C8.77612 24.7479 9.22331 24.9938 9.89409 24.9938C10.5649 24.9938 11.1462 24.6584 11.6381 23.9876C12.1524 23.3169 12.4878 22.4001 12.6443 21.2374L13.2145 21.3045C13.0356 22.8473 12.5437 24.0771 11.7388 24.9938C10.9338 25.8882 9.60342 26.3354 7.74758 26.3354C5.89174 26.3354 4.47191 25.9665 3.48809 25.2286C2.50427 24.4907 2.01236 23.1492 2.01236 21.2039ZM21.5844 18.1183H22.557V15.5357C22.557 13.4116 22.434 11.9918 22.1881 11.2762C21.9645 10.5384 21.5173 10.1694 20.8465 10.1694C20.444 10.1694 20.0751 10.2812 19.7397 10.5048C19.4267 10.7061 19.2702 10.9968 19.2702 11.3769C19.2702 11.7346 19.3372 12.1035 19.4714 12.4837H20.3099C20.4888 12.9532 20.5782 13.5234 20.5782 14.1942C20.5782 14.8426 20.2987 15.4128 19.7397 15.9047C19.1807 16.3742 18.4764 16.609 17.6267 16.609C15.7038 16.609 14.7424 15.6811 14.7424 13.8252C14.7424 11.075 17.0789 9.6999 21.7521 9.6999C24.4129 9.6999 26.2463 10.1583 27.2525 11.075C28.2811 11.9694 28.7953 13.624 28.7953 16.0388V22.8473C28.7953 24.01 29.1195 24.5913 29.768 24.5913C30.5282 24.5913 30.9754 23.4398 31.1095 21.1368L31.6126 21.1703C31.5232 23.138 31.1543 24.4907 30.5058 25.2286C29.8574 25.9665 28.7953 26.3354 27.3196 26.3354C24.6365 26.3354 23.0936 25.5081 22.6912 23.8535C22.4005 24.7031 21.9645 25.3292 21.3831 25.7317C20.8018 26.1342 19.9521 26.3354 18.8342 26.3354C15.5249 26.3354 13.8703 24.9826 13.8703 22.2771C13.8703 20.6896 14.4964 19.6052 15.7485 19.0238C17.023 18.4201 18.9683 18.1183 21.5844 18.1183ZM20.2428 22.2436C20.2428 23.4063 20.2987 24.1553 20.4105 24.4907C20.5447 24.8261 20.7794 24.9938 21.1148 24.9938C21.4726 24.9938 21.7968 24.7143 22.0875 24.1553C22.4005 23.574 22.557 22.7802 22.557 21.774V18.6549H22.3222C20.9359 18.6549 20.2428 19.6723 20.2428 21.707V22.2436ZM31.8081 0.845524H40.0252V25.3963H41.9034V26H31.9423V25.3963H33.7869V1.44923H31.8081V0.845524ZM51.3751 26.3354C48.4908 26.3354 46.3219 25.5975 44.8685 24.1218C43.4375 22.6237 42.722 20.5555 42.722 17.917C42.722 15.2562 43.5269 13.2215 45.1368 11.8129C46.7691 10.4042 48.8373 9.6999 51.3416 9.6999C56.4172 9.6999 58.8544 12.2489 58.6532 17.3469H49.1951V18.6549C49.1951 20.8461 49.4746 22.5007 50.0336 23.6187C50.5925 24.7367 51.5652 25.2957 52.9515 25.2957C55.5452 25.2957 57.2445 23.9094 58.0495 21.1368L58.6532 21.2374C58.2283 22.8473 57.4569 24.0994 56.3389 24.9938C55.2433 25.8882 53.5887 26.3354 51.3751 26.3354ZM49.2286 16.6761H52.6832V15.0326C52.6832 13.2215 52.5714 11.9918 52.3478 11.3433C52.1465 10.6725 51.7217 10.3371 51.0733 10.3371C50.4472 10.3371 49.9777 10.6949 49.6646 11.4104C49.374 12.1035 49.2286 13.311 49.2286 15.0326V16.6761ZM70.6812 19.3928V16.5419C70.6812 14.373 70.5582 12.7967 70.3123 11.8129C70.0887 10.8067 69.552 10.3036 68.7024 10.3036C68.2105 10.3036 67.808 10.4489 67.495 10.7396C67.2043 11.0079 66.9919 11.4663 66.8577 12.1147C66.6565 13.1209 66.5559 14.6525 66.5559 16.7096V19.3257C66.5559 21.7629 66.6229 23.2274 66.7571 23.7193C66.9136 24.2112 67.0701 24.6137 67.2266 24.9267C67.4726 25.4634 67.9533 25.7317 68.6688 25.7317C69.5409 25.7317 70.111 25.2286 70.3793 24.2224C70.5806 23.5069 70.6812 21.897 70.6812 19.3928ZM68.6018 26.3354C65.8068 26.3354 63.6938 25.6199 62.2628 24.1889C60.8318 22.7579 60.1163 20.712 60.1163 18.0512C60.1163 15.368 60.8765 13.311 62.397 11.88C63.9398 10.4266 66.0975 9.6999 68.8701 9.6999C71.6427 9.6999 73.7109 10.3707 75.0748 11.7123C76.4388 13.0315 77.1207 15.055 77.1207 17.7829C77.1207 23.4846 74.2811 26.3354 68.6018 26.3354Z" fill="white"/>
</svg>
